<?xml version="1.0" standalone="no"?><!DOCTYPE svg PUBLIC "-//W3C//DTD SVG 1.1//EN" "http://www.w3.org/Graphics/SVG/1.1/DTD/svg11.dtd" ><svg xmlns="http://www.w3.org/2000/svg"><metadata></metadata><defs><font id="FontEditor 1.0 : fonteditor" horiz-adv-x="1185"><font-face font-family="fonteditor" font-weight="400" font-stretch="normal" units-per-em="1024" panose-1="2 0 6 3 0 0 0 0 0 0" ascent="812" descent="-212" x-height="0" bbox="0 -272 1160 885" underline-thickness="0" underline-position="50" unicode-range="U+0021-00a5" /><missing-glyph horiz-adv-x="374" d="M34 0 l0 682 l272 0 l0 -682 l-272 0 ZM68 34 l204 0 l0 614 l-204 0 l0 -614 Z" /><glyph glyph-name="exclam" unicode="!" d="M104 801 l75 0 l-8 -588 l-58 0 l-9 588 ZM98 0 l0 97 l87 0 l0 -97 l-87 0 Z" /><glyph glyph-name="quotedbl" unicode="&quot;" d="M69 801 l77 0 l-22 -231 l-33 0 l-22 231 ZM195 801 l77 0 l-22 -231 l-33 0 l-22 231 Z" /><glyph glyph-name="numbersign" unicode="#" d="M458 522 l-30 -244 l120 0 l0 -65 l-128 0 l-27 -213 l-46 0 l26 213 l-166 0 l-27 -213 l-46 0 l26 213 l-119 0 l0 65 l127 0 l30 244 l-120 0 l0 66 l128 0 l26 213 l47 0 l-26 -213 l166 0 l26 213 l47 0 l-26 -213 l119 0 l0 -66 l-127 0 ZM411 522 l-166 0 l-30 -244 l166 0 l30 244 Z" /><glyph glyph-name="dollar" unicode="$" d="M263 -16 q-14 0 -20 0 q-117 0 -210 58 l20 60 q94 -58 190 -58 q8 0 20 0 l0 345 q-68 25 -103 44 q-99 56 -99 167 q0 73 41 127 q57 76 161 88 l0 70 l50 0 l0 -69 q83 -4 158 -42 l-18 -62 q-68 40 -140 44 l0 -320 q87 -30 129 -61 q78 -57 78 -164 q0 -81 -48 -139 q-53 -63 -159 -82 l0 -92 l-50 0 l0 86 ZM263 455 l0 299 q-41 -6 -72 -28 q-64 -44 -64 -124 q0 -82 83 -126 q8 -4 53 -21 ZM313 371 l0 -320 q141 33 141 158 q0 79 -58 122 q-28 20 -83 40 Z" /><glyph glyph-name="percent" unicode="%" d="M144 0 l551 801 l61 0 l-550 -801 l-62 0 ZM234 817 q82 0 136 -59 q53 -61 53 -155 q0 -94 -53 -154 q-54 -60 -136 -60 q-81 0 -135 60 q-53 60 -53 157 q0 92 53 152 q55 59 135 59 ZM234 763 q-64 0 -101 -52 q-30 -41 -30 -110 q0 -70 35 -113 q37 -45 96 -45 q65 0 102 53 q30 41 30 107 q0 73 -35 115 q-37 45 -97 45 ZM667 411 q82 0 135 -60 q53 -59 53 -154 q0 -95 -53 -154 q-53 -59 -135 -59 q-82 0 -136 59 q-53 59 -53 157 q0 91 53 151 q54 60 136 60 ZM667 356 q-65 0 -102 -52 q-29 -42 -29 -108 q0 -70 34 -113 q37 -45 97 -45 q64 0 101 52 q30 41 30 107 q0 72 -35 114 q-37 45 -96 45 Z" /><glyph glyph-name="ampersand" unicode="&amp;" d="M578 86 q-5 -3 -9 -6 q-118 -96 -253 -96 q-111 0 -184 63 q-80 70 -80 181 q0 126 116 204 q35 24 89 50 l-30 37 q-62 78 -62 143 q0 64 46 107 q48 46 138 48 q45 -1 79 -14 q49 -19 75 -59 q23 -35 23 -81 q0 -75 -68 -131 q-27 -20 -113 -66 l238 -292 l2 4 q70 83 112 193 l52 -36 q-53 -124 -128 -207 l103 -128 l-78 0 l-68 86 ZM540 132 l-248 306 q-48 -25 -77 -44 q-97 -64 -97 -166 q0 -68 43 -119 q56 -66 157 -66 q122 0 222 89 ZM348 760 q-37 -1 -57 -9 q-65 -24 -65 -92 q0 -47 60 -119 l23 -30 l17 8 q45 24 69 39 q70 43 70 103 q0 96 -117 100 Z" /><glyph glyph-name="quotesingle" unicode="&#39;" d="M66 801 l77 0 l-22 -231 l-33 0 l-22 231 Z" /><glyph glyph-name="parenleft" unicode="(" d="M292 801 l59 0 q-173 -218 -173 -469 q0 -252 173 -469 l-59 0 q-55 61 -93 131 q-90 165 -90 338 q0 124 50 252 q48 122 133 217 Z" /><glyph glyph-name="parenright" unicode=")" d="M87 801 q55 -62 93 -131 q90 -166 90 -338 q0 -124 -50 -252 q-48 -123 -133 -217 l-59 0 q173 217 173 469 q0 251 -173 469 l59 0 Z" /><glyph glyph-name="asterisk" unicode="*" d="M185 617 l-138 73 l26 43 l132 -79 l-2 147 l50 0 l-3 -147 l132 79 l26 -43 l-138 -73 l138 -72 l-26 -43 l-132 80 l3 -148 l-50 0 l2 148 l-132 -80 l-26 43 l138 72 Z" /><glyph glyph-name="plus" unicode="+" d="M360 428 l0 312 l56 0 l0 -312 l312 0 l0 -55 l-312 0 l0 -313 l-56 0 l0 313 l-312 0 l0 55 l312 0 Z" /><glyph glyph-name="comma" unicode="," d="M77 114 l108 0 l0 -106 q0 -52 -20 -74 q-25 -24 -88 -28 l0 42 q31 2 45 12 q12 10 12 41 l-57 0 l0 113 Z" /><glyph glyph-name="hyphen" unicode="-" d="M34 335 l254 0 l0 -71 l-254 0 l0 71 Z" /><glyph glyph-name="period" unicode="." d="M77 114 l108 0 l0 -114 l-108 0 l0 114 Z" /><glyph glyph-name="slash" unicode="/" d="M418 801 l61 0 l-386 -801 l-61 0 l386 801 Z" /><glyph glyph-name="zero" unicode="0" d="M338 817 q80 0 143 -42 q130 -88 130 -376 q0 -415 -276 -415 q-77 0 -139 42 q-130 88 -130 374 q0 212 71 316 q71 101 201 101 ZM339 757 q-207 0 -207 -354 q0 -359 209 -359 q94 0 144 78 q60 92 60 278 q0 357 -206 357 Z" /><glyph glyph-name="one" unicode="1" d="M159 682 l174 119 l67 0 l0 -801 l-68 0 l0 726 l-163 -111 l-10 67 Z" /><glyph glyph-name="two" unicode="2" d="M102 697 q28 38 60 62 q77 58 173 58 q114 0 181 -75 q52 -58 52 -148 q0 -83 -43 -158 q-64 -110 -319 -376 l399 0 l0 -60 l-547 0 q186 185 278 291 q82 93 116 147 q50 80 50 155 q0 79 -57 126 q-44 38 -107 38 q-132 0 -208 -129 l-28 69 Z" /><glyph glyph-name="three" unicode="3" d="M418 432 q74 -15 120 -55 q69 -61 69 -155 q0 -104 -82 -171 q-81 -67 -223 -67 q-121 0 -237 58 l19 60 q98 -58 219 -58 q107 0 171 49 q67 51 67 134 q0 102 -103 147 q-53 23 -140 23 l-55 0 l0 59 l56 0 q70 0 121 32 q69 44 69 123 q0 75 -57 114 q-46 32 -113 32 q-110 0 -196 -84 l-25 59 q105 85 223 85 q104 0 173 -60 q61 -56 61 -142 q0 -73 -48 -126 q-34 -36 -89 -57 Z" /><glyph glyph-name="four" unicode="4" d="M511 0 l-67 0 l0 186 l-389 0 l0 59 l384 556 l72 0 l0 -555 l113 0 l0 -60 l-113 0 l0 -186 ZM126 246 l318 0 l0 462 l-318 -462 Z" /><glyph glyph-name="five" unicode="5" d="M535 801 l0 -61 l-355 0 l0 -285 q70 37 148 37 q116 0 192 -64 q83 -71 83 -185 q0 -113 -81 -185 q-83 -74 -221 -74 q-125 0 -234 60 l19 59 q95 -59 212 -59 q115 0 178 58 q61 55 61 141 q0 90 -65 142 q-57 47 -146 47 q-85 0 -146 -47 l-61 0 l0 416 l416 0 Z" /><glyph glyph-name="six" unicode="6" d="M475 755 q-13 2 -28 2 q-155 0 -249 -143 q-63 -94 -75 -234 q79 129 232 129 q117 0 191 -76 q69 -72 69 -180 q0 -113 -69 -186 q-78 -83 -199 -83 q-131 0 -209 93 q-79 94 -79 260 q0 207 109 342 q111 138 274 138 q16 0 33 -2 l0 -60 ZM352 450 q-92 0 -157 -60 q-59 -52 -59 -135 q0 -92 64 -154 q57 -57 146 -57 q87 0 143 54 q60 57 60 156 q0 81 -46 131 q-58 65 -151 65 Z" /><glyph glyph-name="seven" unicode="7" d="M59 801 l557 0 l0 -70 l-423 -731 l-74 0 l432 740 l-492 0 l0 61 Z" /><glyph glyph-name="eight" unicode="8" d="M463 451 q34 -14 57 -32 q93 -70 93 -187 q0 -108 -79 -179 q-78 -69 -196 -69 q-118 0 -196 69 q-80 71 -80 179 q0 152 150 219 q-15 7 -28 17 q-73 54 -73 149 q0 81 55 138 q61 62 171 62 q110 0 172 -62 q55 -57 55 -138 q0 -95 -74 -149 q-12 -10 -27 -17 ZM338 413 q-93 0 -149 -46 q-60 -52 -60 -133 q0 -79 57 -134 q60 -56 155 -56 q89 0 148 56 q58 55 58 134 q0 82 -61 133 q-56 46 -148 46 ZM337 758 q-78 0 -122 -44 q-39 -39 -39 -100 q0 -62 43 -101 q44 -40 121 -40 q72 0 116 40 q43 39 43 101 q0 62 -39 100 q-45 44 -123 44 Z" /><glyph glyph-name="nine" unicode="9" d="M148 59 q50 -15 94 -15 q165 0 246 138 q53 87 64 239 q-78 -129 -235 -129 q-115 0 -188 75 q-70 71 -70 182 q0 115 72 188 q76 79 196 79 q134 0 211 -93 q77 -93 77 -265 q0 -222 -99 -346 q-103 -128 -274 -128 q-44 0 -94 16 l0 59 ZM330 756 q-94 0 -151 -62 q-53 -56 -53 -148 q0 -80 48 -133 q56 -62 150 -62 q91 0 154 59 q60 55 60 138 q0 90 -59 148 q-59 60 -149 60 Z" /><glyph glyph-name="colon" unicode=":" d="M77 598 l108 0 l0 -114 l-108 0 l0 114 ZM77 114 l108 0 l0 -114 l-108 0 l0 114 Z" /><glyph glyph-name="semicolon" unicode=";" d="M77 598 l108 0 l0 -114 l-108 0 l0 114 ZM77 114 l108 0 l0 -106 q0 -52 -20 -74 q-25 -24 -88 -28 l0 42 q31 2 45 12 q12 10 12 41 l-57 0 l0 113 Z" /><glyph glyph-name="less" unicode="&lt;" d="M157 400 l639 -310 l-23 -50 l-735 360 l735 360 l23 -49 l-639 -311 Z" /><glyph glyph-name="equal" unicode="=" d="M48 551 l680 0 l0 -55 l-680 0 l0 55 ZM48 305 l680 0 l0 -55 l-680 0 l0 55 Z" /><glyph glyph-name="greater" unicode="&gt;" d="M679 400 l-640 311 l23 49 l735 -360 l-735 -360 l-23 50 l640 310 Z" /><glyph glyph-name="question" unicode="?" d="M65 674 l-23 61 q101 82 220 82 q110 0 179 -62 q71 -62 71 -153 q0 -68 -43 -119 q-18 -23 -94 -86 q-36 -28 -52 -54 q-26 -37 -26 -135 l-65 0 q-1 96 20 139 q14 32 54 70 q16 13 82 69 q58 50 58 114 q0 69 -53 114 q-53 44 -134 44 q-103 0 -194 -84 ZM221 0 l0 97 l87 0 l0 -97 l-87 0 Z" /><glyph glyph-name="at" unicode="@" d="M862 458 q-2 -68 -17 -119 q-28 -92 -85 -131 q-45 -31 -93 -31 q-82 0 -103 80 q-57 -75 -152 -75 q-73 0 -117 49 q-45 51 -45 135 q0 105 67 184 q61 71 149 71 q91 0 133 -71 l11 53 l67 0 l-55 -262 q-7 -29 -7 -46 q0 -23 12 -37 q16 -22 48 -22 q51 0 87 63 q36 63 38 157 q-1 51 -14 90 q-31 102 -128 162 q-85 53 -196 53 q-161 0 -257 -107 q-94 -102 -94 -262 q0 -170 108 -264 q100 -87 251 -87 q88 0 171 37 l24 -60 q-97 -34 -193 -34 q-192 0 -308 112 q-53 51 -82 120 q-35 86 -35 182 q0 180 115 298 q116 121 300 121 q189 0 302 -115 q87 -88 97 -205 q1 -12 1 -39 ZM472 563 q-70 0 -115 -62 q-44 -60 -44 -136 q0 -53 23 -84 q30 -41 87 -41 q90 0 129 95 q26 63 26 124 q0 49 -28 76 q-30 28 -78 28 Z" /><glyph glyph-name="A" unicode="a" d="M577 252 l-384 0 l-99 -252 l-72 0 l317 801 l90 0 l319 -801 l-73 0 l-98 252 ZM553 311 l-169 431 l-168 -431 l337 0 Z" /><glyph glyph-name="B" unicode="b" d="M85 801 l241 0 q104 0 157 -22 q59 -24 87 -80 q22 -40 22 -93 q0 -82 -46 -133 q-24 -26 -77 -53 q68 -24 102 -62 q50 -55 50 -137 q0 -125 -91 -180 q-50 -30 -121 -38 q-25 -3 -76 -3 l-248 0 l0 801 ZM152 740 l0 -294 l178 0 q195 0 195 152 q0 99 -79 128 q-39 14 -128 14 l-166 0 ZM152 388 l0 -328 l173 0 q113 0 160 29 q69 40 69 129 q0 129 -123 160 q-39 10 -96 10 l-183 0 Z" /><glyph glyph-name="C" unicode="c" d="M717 112 l0 -74 q-111 -54 -235 -54 q-179 0 -296 102 q-68 61 -103 152 q-30 74 -30 161 q0 123 59 223 q59 99 161 150 q92 45 203 45 q127 0 237 -66 l-25 -61 q-36 25 -65 38 q-65 29 -147 29 q-157 0 -259 -103 q-97 -98 -97 -254 q0 -161 109 -264 q99 -92 256 -92 q101 0 180 37 q21 11 52 31 Z" /><glyph glyph-name="D" unicode="d" d="M84 0 l0 801 l292 0 q124 0 205 -31 q117 -44 174 -160 q44 -93 44 -210 q0 -178 -94 -285 q-74 -85 -209 -107 q-50 -8 -123 -8 l-289 0 ZM151 60 l220 0 q115 0 184 27 q97 39 141 137 q36 77 36 176 q0 153 -77 242 q-63 75 -175 91 q-47 7 -107 7 l-222 0 l0 -680 Z" /><glyph glyph-name="E" unicode="e" d="M152 445 l368 0 l0 -60 l-368 0 l0 -325 l419 0 l0 -60 l-486 0 l0 801 l470 0 l0 -61 l-403 0 l0 -295 Z" /><glyph glyph-name="F" unicode="f" d="M152 440 l368 0 l0 -60 l-368 0 l0 -380 l-67 0 l0 801 l470 0 l0 -61 l-403 0 l0 -300 Z" /><glyph glyph-name="G" unicode="g" d="M780 39 q-139 -55 -279 -55 q-195 0 -312 103 q-69 60 -105 152 q-30 75 -30 163 q0 193 137 313 q117 102 302 102 q138 0 271 -67 l-23 -64 q-117 71 -251 71 q-179 0 -282 -115 q-87 -97 -87 -240 q0 -170 115 -269 q101 -89 269 -89 q107 0 209 36 l0 277 l-231 0 l0 61 l297 0 l0 -379 Z" /><glyph glyph-name="H" unicode="h" d="M151 457 l446 0 l0 344 l67 0 l0 -801 l-67 0 l0 396 l-446 0 l0 -396 l-67 0 l0 801 l67 0 l0 -344 Z" /><glyph glyph-name="I" unicode="i" d="M108 801 l70 0 l0 -801 l-70 0 l0 801 Z" /><glyph glyph-name="J" unicode="j" d="M340 801 l67 0 l0 -509 q0 -73 -6 -118 q-20 -190 -200 -190 q-90 0 -178 64 l27 54 q81 -58 150 -58 q62 0 99 35 q37 37 40 132 q1 29 1 73 l0 517 Z" /><glyph glyph-name="K" unicode="k" d="M152 453 l366 348 l87 0 l-382 -361 l418 -440 l-88 0 l-401 430 l0 -430 l-67 0 l0 801 l67 0 l0 -348 Z" /><glyph glyph-name="L" unicode="l" d="M85 801 l67 0 l0 -741 l311 0 l0 -60 l-378 0 l0 801 Z" /><glyph glyph-name="M" unicode="m" d="M141 801 l110 0 l251 -757 l251 757 l109 0 l117 -801 l-67 0 l-109 758 l-252 -758 l-98 0 l-252 758 l-109 -758 l-66 0 l115 801 Z" /><glyph glyph-name="N" unicode="n" d="M83 801 l105 0 l515 -747 l0 747 l67 0 l0 -801 l-105 0 l-515 746 l0 -746 l-67 0 l0 801 Z" /><glyph glyph-name="O" unicode="o" d="M465 817 q113 0 208 -52 q103 -56 160 -164 q47 -90 47 -201 q0 -184 -125 -304 q-117 -112 -291 -112 q-189 0 -308 131 q-107 116 -107 289 q0 107 47 197 q57 107 161 164 q93 52 208 52 ZM465 757 q-149 0 -250 -104 q-99 -102 -99 -257 q0 -98 51 -185 q49 -83 134 -127 q77 -40 164 -40 q147 0 249 103 q99 103 99 253 q0 103 -51 190 q-48 82 -135 127 q-75 40 -162 40 Z" /><glyph glyph-name="P" unicode="p" d="M85 801 l203 0 q106 0 164 -31 q107 -59 107 -201 q0 -144 -113 -201 q-56 -30 -163 -30 l-131 0 l0 -338 l-67 0 l0 801 ZM152 398 l120 0 q83 0 121 14 q100 35 100 157 q0 132 -116 163 q-32 8 -105 8 l-120 0 l0 -342 Z" /><glyph glyph-name="Q" unicode="q" d="M652 25 q-89 -41 -187 -41 q-190 0 -309 131 q-107 116 -107 284 q0 185 125 304 q117 113 291 113 q188 0 308 -131 q107 -118 107 -286 q0 -183 -124 -303 q-22 -20 -50 -41 l120 -146 l-80 0 l-94 116 ZM610 75 l-156 190 l80 0 l131 -160 q27 20 49 42 q99 103 99 252 q0 151 -99 253 q-102 104 -249 104 q-150 0 -250 -104 q-99 -102 -99 -253 q0 -149 99 -252 q100 -103 250 -103 q76 0 145 31 Z" /><glyph glyph-name="R" unicode="r" d="M328 366 l281 -366 l-79 0 l-277 366 l-101 0 l0 -366 l-67 0 l0 801 l214 0 q100 0 154 -28 q50 -27 77 -77 q28 -49 28 -112 q0 -86 -50 -144 q-62 -70 -180 -74 ZM152 740 l0 -315 l135 0 q97 0 141 30 q64 42 64 129 q0 66 -38 108 q-35 38 -98 45 q-31 3 -69 3 l-135 0 Z" /><glyph glyph-name="S" unicode="s" d="M471 774 l-17 -62 q-77 45 -156 45 q-76 0 -122 -44 q-47 -44 -47 -111 q0 -67 53 -106 q33 -24 121 -55 q127 -45 170 -94 q47 -54 47 -136 q0 -102 -73 -164 q-76 -63 -200 -63 q-116 0 -214 58 l21 60 q94 -58 191 -58 q91 0 150 43 q59 43 59 122 q0 65 -43 108 q-21 23 -59 39 q-18 9 -73 28 q-103 36 -143 67 q-74 57 -74 149 q0 92 64 154 q67 63 173 63 q88 0 172 -43 Z" /><glyph glyph-name="T" unicode="t" d="M365 740 l0 -740 l-67 0 l0 740 l-280 0 l0 61 l626 0 l0 -61 l-279 0 Z" /><glyph glyph-name="U" unicode="u" d="M684 801 l67 0 l0 -455 q0 -125 -28 -194 q-68 -168 -305 -168 q-173 0 -258 93 q-55 59 -69 165 q-6 48 -6 104 l0 455 l67 0 l0 -453 q0 -126 29 -185 q60 -119 237 -119 q187 0 242 132 q24 55 24 172 l0 453 Z" /><glyph glyph-name="V" unicode="v" d="M23 801 l71 0 l295 -743 l294 743 l72 0 l-322 -801 l-89 0 l-321 801 Z" /><glyph glyph-name="W" unicode="w" d="M592 741 l-226 -741 l-91 0 l-251 801 l68 0 l227 -746 l229 746 l89 0 l227 -746 l228 746 l68 0 l-251 -801 l-91 0 l-226 741 Z" /><glyph glyph-name="X" unicode="x" d="M342 464 l218 337 l78 0 l-257 -389 l272 -412 l-78 0 l-233 358 l-233 -358 l-78 0 l272 412 l-257 389 l77 0 l219 -337 Z" /><glyph glyph-name="Y" unicode="y" d="M303 0 l0 332 l-275 469 l74 0 l234 -404 l234 404 l74 0 l-274 -469 l0 -332 l-67 0 Z" /><glyph glyph-name="Z" unicode="z" d="M63 801 l637 0 l0 -62 l-568 -679 l584 0 l0 -60 l-664 0 l0 62 l569 678 l-558 0 l0 61 Z" /><glyph glyph-name="bracketleft" unicode="[" d="M121 801 l230 0 l0 -58 l-169 0 l0 -823 l169 0 l0 -57 l-230 0 l0 938 Z" /><glyph glyph-name="backslash" unicode="\" d="M93 801 l386 -801 l-61 0 l-386 801 l61 0 Z" /><glyph glyph-name="bracketright" unicode="]" d="M258 801 l0 -938 l-230 0 l0 57 l169 0 l0 823 l-169 0 l0 58 l230 0 Z" /><glyph glyph-name="asciicircum" unicode="^" d="M285 816 l253 -477 l-64 0 l-189 367 l-190 -367 l-63 0 l253 477 Z" /><glyph glyph-name="underscore" unicode="_" d="M512 -77 l0 -51 l-512 0 l0 51 l512 0 Z" /><glyph glyph-name="grave" unicode="`" d="M35 801 l86 0 l115 -139 l-54 0 l-147 139 Z" /><glyph glyph-name="a" unicode="a" d="M466 103 q-83 -119 -225 -119 q-81 0 -132 43 q-57 49 -57 131 q0 79 54 130 q44 40 123 55 q31 6 114 17 q76 11 94 21 q28 15 28 57 q0 65 -63 97 q-45 22 -108 22 q-93 0 -178 -52 l-6 62 q83 47 183 47 q86 0 149 -35 q70 -38 83 -117 q4 -28 4 -71 l0 -283 q0 -61 22 -108 l-67 0 q-14 32 -18 103 ZM466 195 l0 142 q-19 -12 -39 -18 q-24 -6 -98 -16 q-118 -15 -153 -35 q-60 -34 -60 -108 q0 -58 37 -89 q32 -30 93 -30 q93 0 163 70 q34 34 57 84 Z" /><glyph glyph-name="b" unicode="b" d="M151 101 l0 -101 l-64 0 l0 840 l64 0 l0 -343 q76 117 213 117 q115 0 189 -82 q79 -86 79 -233 q0 -147 -79 -233 q-74 -82 -189 -82 q-138 0 -213 117 ZM356 557 q-119 0 -174 -102 q-34 -63 -34 -159 q0 -90 34 -153 q55 -102 174 -102 q101 0 158 73 q54 68 54 185 q0 117 -54 185 q-58 73 -158 73 Z" /><glyph glyph-name="c" unicode="c" d="M527 84 l0 -65 q-78 -35 -171 -35 q-139 0 -222 87 q-83 87 -83 228 q0 139 85 227 q83 88 217 88 q92 0 171 -46 l-18 -58 q-68 47 -151 47 q-110 0 -177 -74 q-63 -68 -63 -183 q0 -117 62 -186 q66 -73 183 -73 q87 0 167 43 Z" /><glyph glyph-name="d" unicode="d" d="M531 101 q-75 -117 -213 -117 q-115 0 -189 82 q-79 86 -79 233 q0 147 79 233 q74 82 189 82 q137 0 213 -117 l0 343 l64 0 l0 -840 l-64 0 l0 101 ZM326 557 q-99 0 -158 -73 q-54 -67 -54 -185 q0 -117 54 -185 q57 -73 158 -73 q119 0 174 102 q34 63 34 159 q0 91 -34 153 q-57 102 -174 102 Z" /><glyph glyph-name="e" unicode="e" d="M532 18 q-82 -34 -180 -34 q-132 0 -208 71 q-92 87 -92 241 q0 129 68 220 q74 98 201 98 q98 0 166 -61 q95 -84 96 -274 l-468 0 q5 -105 51 -161 q64 -77 189 -77 q91 0 177 43 l0 -66 ZM116 335 l402 0 q-6 69 -34 122 q-53 100 -163 100 q-124 0 -181 -120 q-20 -45 -24 -102 Z" /><glyph glyph-name="f" unicode="f" d="M172 598 l115 0 l0 -57 l-115 0 l0 -541 l-63 0 l0 541 l-82 0 l0 57 l82 0 l0 83 q0 54 8 79 q27 80 132 80 q16 0 37 -4 l-7 -56 q-21 2 -27 2 q-50 0 -69 -28 q-11 -20 -11 -74 l0 -82 Z" /><glyph glyph-name="g" unicode="g" d="M132 -132 q29 -24 80 -37 q33 -8 57 -11 q34 -4 73 -3 q34 1 60 6 q49 9 79 27 q37 23 47 61 q4 14 4 29 l0 177 l0 2 q-2 -2 -2 -3 q-26 -38 -58 -63 q-41 -30 -92 -40 q-37 -7 -76 -4 q-75 7 -129 51 q-52 44 -78 108 q-15 37 -21 81 q-5 41 -3 86 q3 74 28 129 q33 74 99 116 q36 21 81 29 q35 6 74 3 q91 -8 152 -74 q13 -16 25 -34 q0 -1 1 -1.5 q1 -0.5 1 -1.5 l0 97 l61 0 l0 -3 l0 -658 q0 -48 -24 -84 q-21 -33 -60 -54 q-36 -18 -82 -27 q-55 -12 -123 -10 q-44 2 -81 10 q-52 11 -90 33 q-3 2 -3 7 q0 8 0 53 q0 1 0 3 ZM133 312 q0 -45 8 -81 q11 -49 34 -85 q39 -57 101 -74 q51 -15 106 -4 q46 9 80 40 q37 34 56 87 q14 39 18 90 q2 55 -8 103 q-10 53 -38 94 q-36 54 -95 69 q-48 13 -100 4 q-58 -10 -97 -52 q-36 -37 -52 -91 q-13 -44 -13 -100 Z" /><glyph glyph-name="h" unicode="h" d="M150 0 l-64 0 l0 840 l64 0 l0 -329 q69 103 192 103 q80 0 134 -41 q60 -46 69 -131 q4 -34 4 -100 l0 -342 l-64 0 l0 335 q0 102 -14 142 q-16 42 -60 65 q-31 15 -75 15 q-110 0 -162 -91 q-24 -43 -24 -131 l0 -335 Z" /><glyph glyph-name="i" unicode="i" d="M174 801 l0 -89 l-83 0 l0 89 l83 0 ZM166 598 l0 -598 l-66 0 l0 598 l66 0 Z" /><glyph glyph-name="j" unicode="j" d="M260 598 l0 -694 q0 -67 -17 -108 q-17 -35 -56 -53 q-30 -15 -70 -15 q-45 0 -94 20 l6 58 q52 -21 91 -21 q53 0 67 44 q8 20 8 63 l0 706 l65 0 ZM269 801 l0 -89 l-83 0 l0 89 l83 0 Z" /><glyph glyph-name="k" unicode="k" d="M147 359 l274 239 l88 0 l-286 -248 l328 -350 l-84 0 l-320 346 l0 -346 l-63 0 l0 840 l63 0 l0 -481 Z" /><glyph glyph-name="l" unicode="l" d="M261 57 l0 -57 l-43 0 q-64 0 -92 29 q-26 25 -26 96 l0 715 l65 0 l0 -712 q0 -41 9 -53 q12 -18 46 -18 l41 0 Z" /><glyph glyph-name="m" unicode="m" d="M513 0 l-63 0 l0 344 q0 88 -12 124 q-25 89 -121 89 q-75 0 -124 -58 q-43 -52 -43 -149 l0 -350 l-64 0 l0 598 l64 0 l0 -87 q59 103 176 103 q121 0 173 -110 q69 110 190 110 q90 0 141 -55 q42 -45 49 -125 q2 -25 2 -80 l0 -354 l-64 0 l0 343 q0 87 -10 124 q-12 47 -53 73 q-29 17 -70 17 q-77 0 -125 -54 q-46 -51 -46 -161 l0 -342 Z" /><glyph glyph-name="n" unicode="n" d="M150 0 l-64 0 l0 598 l64 0 l0 -87 q69 103 192 103 q80 0 134 -41 q60 -46 69 -131 q4 -34 4 -100 l0 -342 l-64 0 l0 335 q0 102 -14 142 q-15 42 -60 65 q-31 15 -75 15 q-110 0 -162 -91 q-24 -43 -24 -131 l0 -335 Z" /><glyph glyph-name="o" unicode="o" d="M342 614 q130 0 213 -92 q79 -87 79 -223 q0 -136 -79 -223 q-83 -92 -212 -92 q-131 0 -214 92 q-79 87 -79 227 q0 92 41 167 q39 71 111 110 q63 34 140 34 ZM342 557 q-111 0 -176 -84 q-52 -66 -52 -177 q0 -114 61 -182 q66 -73 167 -73 q111 0 176 84 q52 66 52 174 q0 117 -61 185 q-66 73 -167 73 Z" /><glyph glyph-name="p" unicode="p" d="M87 598 l64 0 l0 -101 q76 117 213 117 q115 0 189 -80 q79 -87 79 -235 q0 -147 -79 -233 q-74 -82 -189 -82 q-138 0 -213 117 l0 -373 l-64 0 l0 870 ZM356 557 q-119 0 -174 -102 q-34 -63 -34 -159 q0 -90 34 -153 q55 -102 174 -102 q100 0 158 73 q54 68 54 185 q0 117 -54 185 q-58 73 -158 73 Z" /><glyph glyph-name="q" unicode="q" d="M595 598 l0 -870 l-64 0 l0 373 q-75 -117 -213 -117 q-115 0 -189 82 q-79 86 -79 233 q0 147 79 235 q74 80 189 80 q137 0 213 -117 l0 101 l64 0 ZM326 557 q-99 0 -158 -73 q-54 -67 -54 -185 q0 -117 54 -185 q57 -73 158 -73 q119 0 174 102 q34 63 34 159 q0 91 -34 153 q-57 102 -174 102 Z" /><glyph glyph-name="r" unicode="r" d="M147 0 l-63 0 l0 598 l63 0 l0 -87 q64 103 184 103 q6 0 15 0 l0 -58 q-10 1 -17 1 q-64 0 -110 -36 q-55 -42 -67 -115 q-5 -25 -5 -71 l0 -335 Z" /><glyph glyph-name="s" unicode="s" d="M62 82 q80 -41 165 -41 q85 0 128 36 q38 32 38 81 q0 46 -35 75 q-26 23 -104 46 q-89 27 -122 48 q-64 40 -64 120 q0 69 48 113 q59 54 159 54 q69 0 141 -30 l-17 -58 q-62 31 -125 31 q-65 0 -104 -29 q-39 -26 -39 -77 q0 -57 46 -82 q21 -13 112 -41 q84 -26 119 -57 q49 -43 49 -113 q0 -79 -59 -124 q-65 -50 -173 -50 q-99 0 -184 42 l21 56 Z" /><glyph glyph-name="t" unicode="t" d="M106 598 l0 171 l64 0 l0 -171 l190 0 l0 -57 l-190 0 l0 -379 q0 -67 15 -88 q23 -33 91 -33 q36 0 73 4 l0 -56 q-42 -5 -77 -5 q-87 0 -124 33 q-30 28 -38 80 q-4 22 -4 67 l0 377 l-77 0 l0 57 l77 0 Z" /><glyph glyph-name="u" unicode="u" d="M485 598 l64 0 l0 -598 l-64 0 l0 87 q-69 -103 -193 -103 q-80 0 -133 41 q-61 46 -69 131 q-4 34 -4 100 l0 342 l64 0 l0 -335 q0 -102 14 -142 q16 -42 60 -64 q32 -16 75 -16 q110 0 162 91 q24 44 24 131 l0 335 Z" /><glyph glyph-name="v" unicode="v" d="M266 60 l175 538 l67 0 l-201 -598 l-83 0 l-200 598 l67 0 l175 -538 Z" /><glyph glyph-name="w" unicode="w" d="M505 598 l155 -529 l174 529 l65 0 l-199 -598 l-77 0 l-163 553 l-162 -553 l-78 0 l-200 598 l66 0 l173 -529 l156 529 l90 0 Z" /><glyph glyph-name="x" unicode="x" d="M280 359 l162 239 l71 0 l-198 -287 l214 -311 l-70 0 l-179 262 l-181 -262 l-70 0 l214 311 l-198 287 l71 0 l164 -239 Z" /><glyph glyph-name="y" unicode="y" d="M246 40 l-221 558 l67 0 l187 -475 l188 475 l68 0 l-349 -870 l-63 0 l123 312 Z" /><glyph glyph-name="z" unicode="z" d="M39 598 l432 0 l0 -64 l-371 -477 l381 0 l0 -57 l-450 0 l0 65 l371 476 l-363 0 l0 57 Z" /><glyph glyph-name="braceleft" unicode="{" d="M269 780 q-25 -22 -42 -47 q-21 -31 -21 -82 q0 -19 2 -45 l7 -103 l1 -20 q2 -33 2 -45 q0 -64 -58 -98 q58 -34 58 -99 q0 -11 -2 -44 l-1 -20 l-7 -103 q-2 -26 -2 -46 q0 -54 25 -87 q17 -23 38 -41 l-45 -37 q-79 62 -79 150 q0 15 1 25 l11 165 q0 1 1 9 q1 13 1 22 q0 38 -20 58 q-17 18 -36 18 l-13 0 l0 60 l13 0 q22 0 39 21 q17 19 17 53 q0 2 -2 33 l-11 164 q-1 11 -1 26 q0 89 79 150 l45 -37 Z" /><glyph glyph-name="bar" unicode="|" d="M100 801 l66 0 l0 -938 l-66 0 l0 938 Z" /><glyph glyph-name="braceright" unicode="}" d="M34 780 l44 37 q80 -62 80 -151 q0 -9 -1 -25 l-11 -164 q-1 -9 -1 -33 q0 -36 19 -57 q17 -17 35 -17 l14 0 l0 -60 l-14 0 q-21 0 -38 -21 q-16 -20 -16 -55 q0 -22 1 -31 l11 -165 q1 -15 1 -24 q0 -89 -80 -151 l-44 37 q24 20 42 46 q21 30 21 80 q0 17 -2 48 l-7 103 l-1 20 q-2 31 -2 44 q0 44 21 70 q13 15 36 29 q-26 16 -39 34 q-18 24 -18 65 q0 18 3 64 l7 103 q2 30 2 48 q0 52 -25 85 q-16 22 -38 41 Z" /><glyph glyph-name="asciitilde" unicode="~" d="M83 350 l-42 37 q81 119 173 119 q51 0 112 -37 q14 -8 103 -66 q33 -21 56 -33 q35 -19 71 -19 q50 0 94 46 q19 20 42 55 l44 -34 q-81 -124 -176 -124 q-43 0 -81 18 q-38 18 -85 49 q-71 48 -94 61 q-50 29 -88 29 q-61 0 -129 -101 Z" /><glyph glyph-name="exclamdown" unicode="¡" d="M104 -256 l9 588 l58 0 l8 -588 l-75 0 ZM98 544 l87 0 l0 -98 l-87 0 l0 98 Z" /><glyph glyph-name="cent" unicode="¢" d="M358 721 q94 -3 166 -46 l-18 -59 q-69 48 -148 48 l0 -517 q91 0 169 43 l0 -65 q-78 -35 -169 -35 l0 -90 l-53 0 l0 93 q-77 10 -133 51 q-59 42 -90 112 q-31 68 -31 148 q0 111 55 193 q70 101 199 121 l0 83 l53 0 l0 -80 ZM305 153 l0 505 q-56 -10 -98 -42 q-92 -69 -92 -209 q0 -155 103 -223 q36 -22 87 -31 Z" /><glyph glyph-name="sterling" unicode="£" d="M183 430 l190 0 l0 -48 l-172 0 q21 -60 21 -108 q0 -113 -102 -209 q51 18 92 18 q36 0 90 -20 q63 -22 89 -22 q52 0 106 36 l19 -55 q-63 -38 -120 -38 q-28 0 -62 10 q-6 2 -52 18 q-41 16 -80 16 q-64 0 -131 -44 l-38 74 q45 32 71 67 q55 71 55 144 q0 38 -24 113 l-97 0 l0 48 l81 0 q-5 14 -17 44 q-29 81 -29 136 q0 87 55 143 q61 63 164 63 q88 0 172 -41 l-14 -62 q-76 46 -151 46 q-78 0 -124 -47 q-39 -38 -39 -100 q0 -56 42 -168 l5 -14 Z" /><glyph glyph-name="currency" unicode="¤" d="M122 593 l-88 88 l37 37 l88 -88 q84 70 191 70 q113 0 194 -70 l88 88 l37 -37 l-88 -88 q70 -87 70 -193 q0 -107 -70 -192 l88 -88 l-37 -37 l-88 88 q-81 -71 -193 -71 q-109 0 -192 71 l-88 -88 l-37 37 l88 88 q-71 84 -71 192 q0 111 71 193 ZM347 649 q-106 0 -181 -83 q-64 -70 -64 -166 q0 -110 82 -185 q72 -63 167 -63 q111 0 186 81 q63 72 63 169 q0 108 -83 183 q-70 64 -170 64 Z" /><glyph glyph-name="yen" unicode="¥" d="M311 209 l-266 0 l0 55 l266 0 l0 96 l-266 0 l0 56 l235 0 l-238 385 l72 0 l230 -380 l233 380 l71 0 l-238 -385 l234 0 l0 -56 l-266 0 l0 -96 l266 0 l0 -55 l-265 0 l0 -209 l-68 0 l0 209 Z" /></font>
</defs>
</svg>
